<?xml version="1.0" encoding="UTF-8"?>
<svg id="Layer_1" data-name="Layer 1" xmlns="http://www.w3.org/2000/svg" viewBox="0 0 412.23 321.16">
  <defs>
    <style>
      .cls-1 {
        fill: #231f20;
      }
    </style>
  </defs>
  <path class="cls-1" d="M69.04,35c3.13,0,4.95,1.81,4.95,4.95v41.23c0,3.13,1.81,4.95,4.95,4.95h15.83c3.3,0,4.95-1.81,4.95-4.95V39.94c0-3.13,1.81-4.95,4.95-4.95h18.47c3.3,0,4.95,1.65,4.95,4.95v105.54c0,3.13-1.65,4.95-4.95,4.95h-18.47c-3.13,0-4.95-1.81-4.95-4.95v-26.05c0-3.3-1.65-4.95-4.95-4.95h-15.83c-3.13,0-4.95,1.65-4.95,4.95v26.05c0,3.13-1.65,4.95-4.95,4.95h-18.47c-3.13,0-4.95-1.81-4.95-4.95V39.94c0-3.3,1.65-4.95,4.95-4.95h18.47Z"/>
  <path class="cls-1" d="M167.66,35c3.3,0,4.95,1.65,4.95,4.95v105.54c0,3.13-1.65,4.95-4.95,4.95h-18.14c-3.13,0-4.95-1.81-4.95-4.95V39.94c0-3.3,1.81-4.95,4.95-4.95h18.14Z"/>
  <path class="cls-1" d="M187.44,72.1c0-10.88,2.31-40.07,41.39-40.07,34.63,0,40.4,22.76,41.23,35.62,.17,2.97-1.32,4.78-4.29,5.44l-18.63,4.12c-3.3,.66-5.11-.82-5.44-4.29-.66-7.92-3.46-12.53-12.86-12.53-12.2,0-13.03,7.75-13.03,20.45v23.75c0,12.7,.82,20.45,13.03,20.45s13.03-7.75,13.03-15.83h-9.56c-3.13,0-4.95-1.81-4.95-4.95v-13.19c0-3.3,1.81-4.95,4.95-4.95h32.98c3.3,0,4.95,1.65,4.95,4.95v22.26c0,10.88-2.31,40.07-41.39,40.07s-41.39-29.19-41.39-40.07v-41.23Z"/>
  <path class="cls-1" d="M308.16,35c3.13,0,4.95,1.81,4.95,4.95v41.23c0,3.13,1.81,4.95,4.95,4.95h15.83c3.3,0,4.95-1.81,4.95-4.95V39.94c0-3.13,1.81-4.95,4.95-4.95h18.47c3.3,0,4.95,1.65,4.95,4.95v105.54c0,3.13-1.65,4.95-4.95,4.95h-18.47c-3.13,0-4.95-1.81-4.95-4.95v-26.05c0-3.3-1.65-4.95-4.95-4.95h-15.83c-3.13,0-4.95,1.65-4.95,4.95v26.05c0,3.13-1.65,4.95-4.95,4.95h-18.47c-3.13,0-4.95-1.81-4.95-4.95V39.94c0-3.3,1.65-4.95,4.95-4.95h18.47Z"/>
  <path class="cls-1" d="M132.53,277.52c2.31,4.29-.33,8.9-5.44,8.9h-18.8c-1.65,0-3.13-.82-3.79-2.31l-17.15-33.15c-.33-.49-.82-.82-1.32-.82h-6.6c-2.97,0-5.11,2.14-5.11,5.11v26.05c0,2.97-2.14,5.11-5.11,5.11h-18.47c-2.97,0-5.11-2.14-5.11-5.11v-105.21c0-2.97,2.14-5.11,5.11-5.11h36.11c29.35,0,41.23,12.53,41.23,39.58,0,15.34-3.79,26.05-12.53,32.32-.66,.49-.82,1.32-.49,2.14l17.48,32.49Zm-53.1-78.16c-2.97,0-5.11,2.14-5.11,5.11v12.2c0,2.97,2.14,5.11,5.11,5.11h8.41c7.92,0,11.87-.99,11.87-11.21s-3.96-11.21-11.87-11.21h-8.41Z"/>
  <path class="cls-1" d="M166.5,171c3.3,0,4.95,1.65,4.95,4.95v105.54c0,3.13-1.65,4.95-4.95,4.95h-18.14c-3.13,0-4.95-1.81-4.95-4.95v-105.54c0-3.3,1.81-4.95,4.95-4.95h18.14Z"/>
  <path class="cls-1" d="M245.49,211.89c-3.3,.66-4.95-.82-5.44-4.12-1.15-6.76-6.6-11.05-14.35-11.05-6.43,0-10.39,3.79-9.73,7.59,2.31,12.86,54.42,12.53,54.42,50.46,0,4.95-5.61,34.13-44.69,34.13-34.63,0-42.05-22.76-42.88-35.62-.17-2.97,1.32-4.78,4.29-5.44l18.63-4.12c3.3-.66,5.11,.82,5.44,4.29,.66,7.92,6.76,12.53,14.51,12.53s14.02-4.78,13.03-9.23c-3.13-14.02-52.77-10.88-52.77-48.81-.17-4.95,2.8-34.13,39.74-34.13,33.97,0,41.88,22.1,42.87,33.97,.17,2.97-1.32,4.78-4.29,5.44l-18.8,4.12Z"/>
  <path class="cls-1" d="M356.47,171c3.3,0,4.95,1.65,4.95,4.95v18.47c0,3.13-1.65,4.95-4.95,4.95h-39.91c-3.13,0-4.95,1.65-4.95,4.95v5.28c0,3.13,1.81,4.95,4.95,4.95h25.56c3.3,0,4.95,1.65,4.95,4.95v18.47c0,3.13-1.65,4.95-4.95,4.95h-25.56c-3.13,0-4.95,1.65-4.95,4.95v5.28c0,3.13,1.81,4.95,4.95,4.95h39.91c3.3,0,4.95,1.65,4.95,4.95v18.47c0,3.3-1.65,4.95-4.95,4.95h-69.26c-3.13,0-4.95-1.81-4.95-4.95v-105.54c0-3.3,1.81-4.95,4.95-4.95h69.26Z"/>
</svg>